<svg width="84" height="84" viewBox="0 0 84 84" fill="none" xmlns="http://www.w3.org/2000/svg">
<g id="sound-waves 2" clip-path="url(#clip0_501_4311)">
<path id="Vector" d="M1.60034 35.2471C0.715942 35.2471 0 35.963 0 36.8465V44.8464C0 45.7308 0.715942 46.4467 1.60034 46.4467C2.48383 46.4467 3.19977 45.7308 3.19977 44.8464V36.8465C3.19977 35.963 2.48383 35.2471 1.60034 35.2471Z" fill="#DCFADF"/>
<path id="Vector_2" d="M9.6062 28.6958C8.72272 28.6958 8.00586 29.4127 8.00586 30.2961V52.4482C8.00586 53.3326 8.72272 54.0486 9.6062 54.0486C10.4897 54.0486 11.2065 53.3326 11.2065 52.4482V30.2961C11.2065 29.4127 10.4897 28.6958 9.6062 28.6958Z" fill="#DCFADF"/>
<path id="Vector_3" d="M17.6003 17.647C16.7169 17.647 16 18.3629 16 19.2464V64.0468C16 64.9303 16.7169 65.6471 17.6003 65.6471C18.4838 65.6471 19.2007 64.9303 19.2007 64.0468V19.2464C19.2007 18.3629 18.4838 17.647 17.6003 17.647Z" fill="#DCFADF"/>
<path id="Vector_4" d="M25.6003 25.647C24.7169 25.647 24 26.3629 24 27.2473V54.4467C24 55.3302 24.7169 56.047 25.6003 56.047C26.4838 56.047 27.2007 55.3302 27.2007 54.4467V27.2473C27.2007 26.3629 26.4838 25.647 25.6003 25.647Z" fill="#DCFADF"/>
<path id="Vector_5" d="M49.7557 21.7734C48.8722 21.7734 48.1562 22.4894 48.1562 23.3738V59.3714C48.1562 60.2549 48.8722 60.9708 49.7557 60.9708C50.6392 60.9708 51.356 60.2549 51.356 59.3714V23.3738C51.356 22.4894 50.6392 21.7734 49.7557 21.7734Z" fill="#DCFADF"/>
<path id="Vector_6" d="M65.6003 24.0464C64.7169 24.0464 64 24.7632 64 25.6467V57.6462C64 58.5306 64.7169 59.2466 65.6003 59.2466C66.4838 59.2466 67.1998 58.5306 67.1998 57.6462V25.6467C67.1998 24.7632 66.4838 24.0464 65.6003 24.0464Z" fill="#DCFADF"/>
<path id="Vector_7" d="M73.6003 32.0464C72.7169 32.0464 72 32.7632 72 33.6467V49.6465C72 50.53 72.7169 51.2468 73.6003 51.2468C74.4838 51.2468 75.1998 50.53 75.1998 49.6465V33.6467C75.1998 32.7632 74.4838 32.0464 73.6003 32.0464Z" fill="#DCFADF"/>
<path id="Vector_8" d="M57.6003 11.2466C56.7159 11.2466 56 11.9634 56 12.8469V70.4464C56 71.3308 56.7159 72.0468 57.6003 72.0468C58.4838 72.0468 59.1998 71.3308 59.1998 70.4464V12.8469C59.1998 11.9634 58.4838 11.2466 57.6003 11.2466Z" fill="#DCFADF"/>
<path id="Vector_9" d="M33.5994 36.8467C32.7159 36.8467 32 37.5635 32 38.447V44.8465C32 45.7309 32.7159 46.4469 33.5994 46.4469C34.4829 46.4469 35.1998 45.7309 35.1998 44.8465V38.447C35.1998 37.5635 34.4829 36.8467 33.5994 36.8467Z" fill="#DCFADF"/>
<path id="Vector_10" d="M81.6003 36.311C80.7169 36.311 80 37.027 80 37.9105V44.8337C80 45.7172 80.7169 46.434 81.6003 46.434C82.4838 46.434 83.2007 45.7172 83.2007 44.8337V37.9105C83.2007 37.027 82.4838 36.311 81.6003 36.311Z" fill="#DCFADF"/>
<path id="Vector_11" d="M41.4499 33.2603C40.5656 33.2603 39.8496 33.9762 39.8496 34.8597V47.884C39.8496 48.7675 40.5656 49.4843 41.4499 49.4843C42.3334 49.4843 43.0494 48.7675 43.0494 47.884V34.8597C43.0494 33.9762 42.3334 33.2603 41.4499 33.2603Z" fill="#DCFADF"/>
</g>
<defs>
<clipPath id="clip0_501_4311">
<rect width="83.2" height="83.2" fill="white"/>
</clipPath>
</defs>
</svg>
