<svg width="84" height="84" viewBox="0 0 84 84" fill="none" xmlns="http://www.w3.org/2000/svg">
<g id="sound-waves 3" clip-path="url(#clip0_501_4323)">
<path id="Vector" d="M81.9993 35.2471C82.8837 35.2471 83.5996 35.963 83.5996 36.8465V44.8464C83.5996 45.7308 82.8837 46.4467 81.9993 46.4467C81.1158 46.4467 80.3998 45.7308 80.3998 44.8464V36.8465C80.3998 35.963 81.1158 35.2471 81.9993 35.2471Z" fill="#DCFADF"/>
<path id="Vector_2" d="M73.9934 28.6958C74.8769 28.6958 75.5938 29.4127 75.5938 30.2961V52.4482C75.5938 53.3326 74.8769 54.0486 73.9934 54.0486C73.1099 54.0486 72.3931 53.3326 72.3931 52.4482V30.2961C72.3931 29.4127 73.1099 28.6958 73.9934 28.6958Z" fill="#DCFADF"/>
<path id="Vector_3" d="M65.9993 17.647C66.8828 17.647 67.5996 18.3629 67.5996 19.2464V64.0468C67.5996 64.9303 66.8828 65.6471 65.9993 65.6471C65.1158 65.6471 64.3989 64.9303 64.3989 64.0468V19.2464C64.3989 18.3629 65.1158 17.647 65.9993 17.647Z" fill="#DCFADF"/>
<path id="Vector_4" d="M57.9993 25.647C58.8828 25.647 59.5996 26.3629 59.5996 27.2473V54.4467C59.5996 55.3302 58.8828 56.047 57.9993 56.047C57.1158 56.047 56.3989 55.3302 56.3989 54.4467V27.2473C56.3989 26.3629 57.1158 25.647 57.9993 25.647Z" fill="#DCFADF"/>
<path id="Vector_5" d="M33.8439 21.7734C34.7274 21.7734 35.4434 22.4894 35.4434 23.3738V59.3714C35.4434 60.2549 34.7274 60.9708 33.8439 60.9708C32.9604 60.9708 32.2436 60.2549 32.2436 59.3714V23.3738C32.2436 22.4894 32.9604 21.7734 33.8439 21.7734Z" fill="#DCFADF"/>
<path id="Vector_6" d="M17.9993 24.0464C18.8828 24.0464 19.5996 24.7632 19.5996 25.6467V57.6462C19.5996 58.5306 18.8828 59.2466 17.9993 59.2466C17.1158 59.2466 16.3998 58.5306 16.3998 57.6462V25.6467C16.3998 24.7632 17.1158 24.0464 17.9993 24.0464Z" fill="#DCFADF"/>
<path id="Vector_7" d="M9.99927 32.0464C10.8828 32.0464 11.5996 32.7632 11.5996 33.6467V49.6465C11.5996 50.53 10.8828 51.2468 9.99927 51.2468C9.11578 51.2468 8.39984 50.53 8.39984 49.6465V33.6467C8.39984 32.7632 9.11578 32.0464 9.99927 32.0464Z" fill="#DCFADF"/>
<path id="Vector_8" d="M25.9993 11.2466C26.8837 11.2466 27.5996 11.9634 27.5996 12.8469V70.4464C27.5996 71.3308 26.8837 72.0468 25.9993 72.0468C25.1158 72.0468 24.3998 71.3308 24.3998 70.4464V12.8469C24.3998 11.9634 25.1158 11.2466 25.9993 11.2466Z" fill="#DCFADF"/>
<path id="Vector_9" d="M50.0002 36.8467C50.8837 36.8467 51.5996 37.5635 51.5996 38.447V44.8465C51.5996 45.7309 50.8837 46.4469 50.0002 46.4469C49.1167 46.4469 48.3998 45.7309 48.3998 44.8465V38.447C48.3998 37.5635 49.1167 36.8467 50.0002 36.8467Z" fill="#DCFADF"/>
<path id="Vector_10" d="M1.99928 36.311C2.88276 36.311 3.59961 37.027 3.59961 37.9105V44.8337C3.59961 45.7172 2.88276 46.434 1.99928 46.434C1.1158 46.434 0.398949 45.7172 0.398949 44.8337V37.9105C0.398949 37.027 1.1158 36.311 1.99928 36.311Z" fill="#DCFADF"/>
<path id="Vector_11" d="M42.1497 33.2603C43.0341 33.2603 43.75 33.9762 43.75 34.8597V47.884C43.75 48.7675 43.0341 49.4843 42.1497 49.4843C41.2662 49.4843 40.5502 48.7675 40.5502 47.884V34.8597C40.5502 33.9762 41.2662 33.2603 42.1497 33.2603Z" fill="#DCFADF"/>
</g>
<defs>
<clipPath id="clip0_501_4323">
<rect width="83.2" height="83.2" fill="white" transform="matrix(-1 0 0 1 83.5996 0)"/>
</clipPath>
</defs>
</svg>
